# xmcd
#
# Track frame offsets: 
#        150
#        14428
#        28567
#        41528
#        50958
#        65293
#        76569
#        87097
#        99862
#        112819
#        121828
#        134035
#        145241
#        156344
#        166962
#        176474
#        188788
#        199115
#        211552
#        224226
#
# Disc length: 3152 seconds
#
# Revision: 0
# Processed by: cddbd v1.5.2PL0 Copyright (c) Steve Scherf et al.
# Submitted via: ExactAudioCopyFreeDBPlugin 1.0
#
DISCID=0f0c4e14
DTITLE=Slim Whitman - The Absolutely Essential Collection CD2
DYEAR=2013
DGENRE=Country
TTITLE0=Indian Love Call
TTITLE1=I'll Never Pass This Way Again
TTITLE2=Birmingham Jail 
TTITLE3=In a Hundred Years or More
TTITLE4=Danny Boy
TTITLE5=Singing Hills
TTITLE6=Song of the Wild
TTITLE7=At The End Of Nowhere
TTITLE8=Too Late Now
TTITLE9=Unchain My Heart
TTITLE10=Roll River Roll 
TTITLE11=Annie Laurie
TTITLE12=The Wayward Wind
TTITLE13=Cryin' For The Moon 
TTITLE14=The Old Spinning Wheel
TTITLE15=Twilla Lee
TTITLE16=Put Your Trust in Me
TTITLE17=Tell Me
TTITLE18=Secret Love
TTITLE19=My Heart is Broken in Three
EXTD=
EXTT0=
EXTT1=
EXTT2=
EXTT3=
EXTT4=
EXTT5=
EXTT6=
EXTT7=
EXTT8=
EXTT9=
EXTT10=
EXTT11=
EXTT12=
EXTT13=
EXTT14=
EXTT15=
EXTT16=
EXTT17=
EXTT18=
EXTT19=
PLAYORDER=
